<svg width="455" height="146" viewBox="0 0 455 146" fill="none" xmlns="http://www.w3.org/2000/svg">
<path fill-rule="evenodd" clip-rule="evenodd" d="M345.199 98.4721V8.53711H355.917V98.4721H345.199ZM184.975 36.8731V98.4721H174.256V47.2211H151.465V98.4721H140.746V50.7931C147.165 47.2201 151.436 47.2201 151.436 47.2201H140.771L140.746 47.2491V47.2211H130.891V36.8731H140.746V35.0251C140.746 18.7631 149.74 10.6311 167.727 10.6311C171.094 10.6311 175.324 11.1651 180.416 12.2331V21.9661C175.406 21.3091 171.176 20.9801 167.727 20.9801C162.142 20.9801 158.035 22.0481 155.407 24.1831C152.779 26.2371 151.465 29.8501 151.465 35.0251V36.8731H184.975ZM230.838 35.2711C238.066 35.2711 243.856 37.5711 248.209 42.1701C252.562 46.6881 254.739 52.8471 254.739 60.6501V98.4721H244.02V61.2661C244.02 56.2561 242.665 52.3961 239.955 49.6851C237.245 46.8931 233.507 45.4971 228.744 45.4971C223.405 45.4971 219.093 47.1801 215.808 50.5481C212.523 53.8331 210.88 58.9251 210.88 65.8241V98.4721H200.162V36.8731H210.88V45.7431C215.233 38.7621 221.886 35.2711 230.838 35.2711ZM330.192 12.2331H319.474V47.4681L319.472 47.4651V55.1651V64.4831C319.472 64.4831 319.472 46.4401 311.548 39.4271C307.254 36.6571 302.134 35.2711 296.189 35.2711C287.565 35.2711 280.214 38.4331 274.137 44.7571C268.059 50.9991 265.02 58.6381 265.02 67.6721C265.02 76.7071 268.059 84.3861 274.137 90.7101C280.214 96.9521 287.565 100.074 296.189 100.074C306.374 100.074 314.135 96.0081 319.474 87.8771V98.4721H330.192V12.2331ZM313.191 83.4421C309.002 87.6301 303.786 89.7251 297.544 89.7251C291.384 89.7251 286.21 87.6301 282.021 83.4421C277.833 79.1711 275.738 73.9141 275.738 67.6721C275.738 61.4301 277.833 56.2151 282.021 52.0261C286.21 47.7551 291.384 45.6201 297.544 45.6201C303.786 45.6201 309.002 47.7551 313.191 52.0261C317.379 56.2151 319.474 61.4301 319.474 67.6721C319.474 73.9141 317.379 79.1711 313.191 83.4421ZM425.491 36.8731H414.033L396.293 85.1671L375.349 36.8731H363.891L390.749 98.2261L389.64 100.566C386.108 109.519 380.564 113.707 373.008 113.133V123.112C379.168 123.522 384.589 121.88 389.27 118.184C394.034 114.57 397.73 109.272 400.358 102.291L425.491 36.8731ZM444.078 26.3071L446.967 33.5391H448.777L451.648 26.3261V33.5391H454.885V20.7301H453.876H451.648H451.039L447.872 29.1881L444.687 20.7301H444.078H441.851H440.859V33.5391H444.078V26.3071ZM431.496 23.3931V33.5391H434.733V23.3931H438.631V20.7301H427.598V23.3931H431.496Z" fill="#262A3C"/>
<path d="M2.23633 74.5728L20.3773 85.0948M2.23633 74.5728V128.849L20.3773 142.751M2.23633 74.5728L16.0303 70.3328M20.3773 85.0948L93.8043 62.1728M20.3773 85.0948V142.751M20.3773 142.751L34.7093 121.524L93.8043 100.927V62.1728M93.8043 62.1728L78.6413 54.5508" stroke="url(#paint0_linear_2134_45)" stroke-width="4"/>
<path d="M2.23633 24.9786L20.3773 35.5006M2.23633 24.9786L74.3673 2.80859L93.8043 12.5786M2.23633 24.9786V60.9836L20.3773 73.0776M20.3773 35.5006L93.8043 12.5786M20.3773 35.5006V73.0776M93.8043 12.5786V49.7796L20.3773 73.0776" stroke="url(#paint1_linear_2134_45)" stroke-width="4"/>
<defs>
<linearGradient id="paint0_linear_2134_45" x1="-3.41567" y1="79.8688" x2="58.1883" y2="20.4878" gradientUnits="userSpaceOnUse">
<stop stop-color="#006DE4"/>
<stop offset="1" stop-color="#01EA98"/>
</linearGradient>
<linearGradient id="paint1_linear_2134_45" x1="2.23633" y1="43.0126" x2="52.3793" y2="-31.4414" gradientUnits="userSpaceOnUse">
<stop stop-color="#006DE4"/>
<stop offset="1" stop-color="#01EA98"/>
</linearGradient>
</defs>
</svg>
